<svg id="Capa_1" data-name="Capa 1" xmlns="http://www.w3.org/2000/svg" viewBox="0 0 354.33 99.21"><defs><style>.cls-1{fill:#73caeb;}.cls-2{fill:#70b744;}.cls-3{fill:#42adda;}.cls-4{fill:#1d1d1b;}</style></defs><title>logo</title><path class="cls-1" d="M20.75,28l-1.4,1.86a38.07,38.07,0,0,0-7.2,17,32.9,32.9,0,0,0-.47,5.94c0,1.54,0,3.08.14,4.6A35.83,35.83,0,0,0,13.44,65a29.92,29.92,0,0,0,5.33,9.89,32.43,32.43,0,0,0,10.44,8.42,33,33,0,0,0,9.7,3.26c1.86.3,3.72.67,5.59.79a43.47,43.47,0,0,0,5-.13,26.47,26.47,0,0,0,5.59-1,43.13,43.13,0,0,0,12.68-5.46c.19-.13.39-.24.58-.35l.09.08c-.31.32-.6.65-.92,1a39.91,39.91,0,0,1-11.09,7,33.26,33.26,0,0,1-8.51,2.54,37.26,37.26,0,0,1-8.31.32,33.62,33.62,0,0,1-11.46-2.91,35.14,35.14,0,0,1-9.47-6.2,35.66,35.66,0,0,1-9-13.08,29.92,29.92,0,0,1-2.09-8.1,49.88,49.88,0,0,1-.36-5.46,32.48,32.48,0,0,1,.58-5.89,37.44,37.44,0,0,1,2.5-8.23,34.58,34.58,0,0,1,4.66-7.8c1.2-1.49,2.53-2.89,3.85-4.28a22.42,22.42,0,0,1,1.89-1.62Z"/><path class="cls-2" d="M44.89,11.34a13.55,13.55,0,0,1,1.48-.61c1.62-.47,3.24-1,4.89-1.33a23.68,23.68,0,0,1,6.93-.32c1.63.14,3.25.38,4.86.64a29.26,29.26,0,0,1,9.19,3.35,30.64,30.64,0,0,1,7.54,5.86,32.67,32.67,0,0,1,6.37,9.64,28.31,28.31,0,0,1,1.92,6.15,36.17,36.17,0,0,1,.59,4.87,46.91,46.91,0,0,1,0,5.81,33.88,33.88,0,0,1-1.42,7.31A46.15,46.15,0,0,1,85,58.51a39.3,39.3,0,0,1-4.18,6.89,38.4,38.4,0,0,1-7.42,7.43A37.65,37.65,0,0,1,66,77.33a32.69,32.69,0,0,1-6.08,2.12c-.63.15-1.28.18-1.92.27l0-.19c.31-.13.61-.27.92-.39a42.55,42.55,0,0,0,9.86-5.66,40.83,40.83,0,0,0,5.17-4.66A38.61,38.61,0,0,0,79,61.92a35.33,35.33,0,0,0,4.08-10.38,40.8,40.8,0,0,0,.79-4.91,44.13,44.13,0,0,0,.17-5.39,28.78,28.78,0,0,0-.94-6.1A30.65,30.65,0,0,0,79.26,26a31.25,31.25,0,0,0-4.74-5.83A31.65,31.65,0,0,0,63.57,13.3a29,29,0,0,0-5.78-1.59c-1.77-.26-3.55-.43-5.34-.59a20.44,20.44,0,0,0-2.71-.07c-1.21.06-2.41.22-3.62.33l-1.18.1Z"/><path class="cls-3" d="M49.17,40.54c.65-1.66,1.3-3.21,1.85-4.79a10.54,10.54,0,0,0,.63-4.28,7.86,7.86,0,0,0-1.29-3.62,16.67,16.67,0,0,0-3.5-3.76,24.71,24.71,0,0,1-5.53-5.92,9.45,9.45,0,0,1-1.41-6A7.29,7.29,0,0,1,42.84,7a2.3,2.3,0,0,1,0,.38,10.72,10.72,0,0,0-.59,3.27A8.39,8.39,0,0,0,44,15.82,19.17,19.17,0,0,0,48.62,20a30.92,30.92,0,0,1,4.69,3.93,10.49,10.49,0,0,1,2.86,5.83,15.17,15.17,0,0,1-1.53,9A16.81,16.81,0,0,1,50.49,44c.47,1.68.95,3.34,1.39,5a64.35,64.35,0,0,1,1.46,7.39,49.72,49.72,0,0,1,.33,8.27c-.06,1.8-.33,3.59-.53,5.38a37.53,37.53,0,0,1-2.61,10c-.63,1.51-1.44,3-2.18,4.42A4.2,4.2,0,0,1,48,85l-.13,0a9.11,9.11,0,0,1,.11-1c.35-2,.75-3.93,1.07-5.9.27-1.63.48-3.26.67-4.9.21-1.84.37-3.68.55-5.52,0-.24,0-.49,0-.74,0-2,.06-3.9-.05-5.85a56.52,56.52,0,0,0-2.65-14.34,96.68,96.68,0,0,0-6.74-16.27,38.71,38.71,0,0,0-4.56-6.76,30.2,30.2,0,0,0-5.86-5.43c-.35-.24-.73-.43-1.17-.68a3,3,0,0,1,1.71.09,16.66,16.66,0,0,1,6,3.15A28,28,0,0,1,44.29,30,88.29,88.29,0,0,1,49,40.29Z"/><path class="cls-2" d="M45.83,72.6a41.65,41.65,0,0,0-5.36-7.11,46.25,46.25,0,0,0-6.89-5.57c.19.23.37.48.57.7,1.25,1.32,2.51,2.63,3.76,4a38.73,38.73,0,0,1,5.14,6.67c.41.69.77,1.42,1.15,2.13a2.73,2.73,0,0,1,.11.39c-1.06-.11-2.05-.17-3-.31a17.94,17.94,0,0,1-4.36-1.18,12.61,12.61,0,0,1-4.76-3.19,13.31,13.31,0,0,1-3.09-6.18,17.58,17.58,0,0,1-.33-4.85c.07-1.36.31-2.71.49-4.15.43.1.77.15,1.1.24a41,41,0,0,1,9.3,3.33,13.1,13.1,0,0,1,6,6,11.62,11.62,0,0,1,1,5.22A10.25,10.25,0,0,1,45.83,72.6Z"/><path class="cls-2" d="M71.22,39.82c.09.94.22,1.76.22,2.58,0,1.29-.1,2.58-.18,3.86a16.13,16.13,0,0,1-1.48,5.67A12.05,12.05,0,0,1,64,57.87a22.52,22.52,0,0,1-4.79,1.75,5.28,5.28,0,0,1-1.17.14,31,31,0,0,1,7.84-13.28,20.56,20.56,0,0,0-5.59,5.25,40.19,40.19,0,0,0-3.6,6.9,3.52,3.52,0,0,1-.35-.57,14.1,14.1,0,0,1-.81-6,11.12,11.12,0,0,1,1.06-4.32,11.7,11.7,0,0,1,4.8-4.83,20.66,20.66,0,0,1,5.23-2.12C68.11,40.34,69.65,40.13,71.22,39.82Z"/><path class="cls-3" d="M22,22.34a14.26,14.26,0,0,1,1.59.27,17.52,17.52,0,0,1,6.18,2.49,11.52,11.52,0,0,1,4.65,7.08c.39,1.77.66,3.56,1,5.33a11.13,11.13,0,0,0,1.68,4,9,9,0,0,0,4.69,3.35,30.77,30.77,0,0,0,3,.83,1.24,1.24,0,0,1,.89.62c.27.46.23.6-.31.78a15,15,0,0,1-1.93.54,16.55,16.55,0,0,1-3.11.45,8.06,8.06,0,0,1-5.15-1.74A12,12,0,0,1,31,38.94c-.39-2-.61-4-.94-6a12.81,12.81,0,0,0-6.19-9.36L22,22.5Z"/><path class="cls-3" d="M100.44,50V29.31h13.37v3.25H103.9v5.11h8.19v3.25H103.9v5.85h9.91V50Z"/><path class="cls-3" d="M117.55,50V28.88H121V50Z"/><path class="cls-3" d="M131.09,50V29.31h12.47v3.47h-9v5.16h7.28v3.45h-7.28V50Z"/><path class="cls-3" d="M146.43,32.13V29h3.47v3.18Zm0,17.89V34.49h3.47V50Z"/><path class="cls-3" d="M154.19,50V34.49h3.09v4.82h.41V50ZM165,50V42.54c0-.49,0-1-.1-1.62a6,6,0,0,0-.47-1.72,3.38,3.38,0,0,0-1.09-1.36,3.24,3.24,0,0,0-2-.53,4.27,4.27,0,0,0-1.31.21,3.05,3.05,0,0,0-1.17.74A3.71,3.71,0,0,0,158,39.7a7.29,7.29,0,0,0-.32,2.34l-2.05-.88a8.11,8.11,0,0,1,.77-3.59A6.12,6.12,0,0,1,158.67,35a6.7,6.7,0,0,1,3.68-1,6.12,6.12,0,0,1,2.85.58A5.11,5.11,0,0,1,167,36.08a6.45,6.45,0,0,1,1,1.9,9,9,0,0,1,.41,1.91,12.86,12.86,0,0,1,.1,1.46V50Z"/><path class="cls-3" d="M184.19,50.45a6.5,6.5,0,0,1-3.74-1.08A7.06,7.06,0,0,1,178,46.44a9.75,9.75,0,0,1-.87-4.19,9.59,9.59,0,0,1,.88-4.2,7.09,7.09,0,0,1,2.51-2.92,6.77,6.77,0,0,1,3.83-1.07A6.24,6.24,0,0,1,188,35.13a6.68,6.68,0,0,1,2.28,2.92,11.79,11.79,0,0,1,0,8.38,6.25,6.25,0,0,1-6.13,4Zm.53-3.1a3.71,3.71,0,0,0,2.25-.64,3.67,3.67,0,0,0,1.25-1.79,8.06,8.06,0,0,0,.4-2.67,8,8,0,0,0-.4-2.66A3.65,3.65,0,0,0,187,37.8a3.47,3.47,0,0,0-2.16-.64,3.7,3.7,0,0,0-2.3.69,3.93,3.93,0,0,0-1.33,1.84,7.2,7.2,0,0,0-.43,2.56,7.57,7.57,0,0,0,.42,2.59,4,4,0,0,0,1.3,1.83A3.57,3.57,0,0,0,184.72,47.35Zm3.9,2.67V39.12h-.43V29.31h3.49V50Z"/><path class="cls-3" d="M202.77,50.45a8.2,8.2,0,0,1-4.14-1,7.14,7.14,0,0,1-2.78-2.83,8.46,8.46,0,0,1-1-4.17,9.52,9.52,0,0,1,1-4.43,7.21,7.21,0,0,1,2.72-2.91,7.72,7.72,0,0,1,4-1,7.19,7.19,0,0,1,4.11,1.13,6.73,6.73,0,0,1,2.51,3.18,10.92,10.92,0,0,1,.61,4.85h-3.43V42a6.27,6.27,0,0,0-.89-3.69,3.24,3.24,0,0,0-2.77-1.17,3.76,3.76,0,0,0-3.16,1.32,6.1,6.1,0,0,0-1,3.84,5.74,5.74,0,0,0,1,3.66,3.65,3.65,0,0,0,3,1.29,4.15,4.15,0,0,0,2.21-.57A3.66,3.66,0,0,0,206.21,45l3.42,1a7,7,0,0,1-2.75,3.27A7.64,7.64,0,0,1,202.77,50.45Zm-5.35-7.23V40.6h10.69v2.62Z"/><path class="cls-3" d="M213.31,50V28.88h3.47V50Z"/><path class="cls-3" d="M226.85,50V29.31h8.56l.77,0c.32,0,.61.05.88.09a6.24,6.24,0,0,1,3,1.2,5.57,5.57,0,0,1,1.74,2.32,8.22,8.22,0,0,1,.57,3.12,8,8,0,0,1-.58,3.1A5.57,5.57,0,0,1,240,41.48a6.2,6.2,0,0,1-2.95,1.19c-.27,0-.56.07-.89.09l-.76,0h-5.1V50Zm3.46-10.47h4.95l.65,0a4.13,4.13,0,0,0,.66-.11,2.64,2.64,0,0,0,1.36-.77,3.15,3.15,0,0,0,.7-1.23,4.48,4.48,0,0,0,0-2.71,3.23,3.23,0,0,0-.7-1.25,2.63,2.63,0,0,0-1.36-.76,3.25,3.25,0,0,0-.66-.11l-.65,0h-4.95Z"/><path class="cls-3" d="M245.21,50V34.49h3.07v3.78l-.38-.49a5.89,5.89,0,0,1,.77-1.42,4.31,4.31,0,0,1,1.16-1,5,5,0,0,1,1.27-.61,6.44,6.44,0,0,1,1.44-.28,6.1,6.1,0,0,1,1.42.07v3.23a4.71,4.71,0,0,0-1.59-.13,3.68,3.68,0,0,0-1.62.51,3.55,3.55,0,0,0-1.17,1,4.27,4.27,0,0,0-.67,1.37,6.34,6.34,0,0,0-.21,1.66V50Z"/><path class="cls-3" d="M257,32.13V29h3.46v3.18ZM257,50V34.49h3.46V50Z"/><path class="cls-3" d="M264.73,50V34.49h3.09v4.82h.42V50Zm10.77,0V42.54a13.76,13.76,0,0,0-.1-1.62,5.69,5.69,0,0,0-.46-1.72,3.32,3.32,0,0,0-1.1-1.36,3.21,3.21,0,0,0-2-.53,4.22,4.22,0,0,0-1.31.21,3.05,3.05,0,0,0-1.17.74,3.71,3.71,0,0,0-.84,1.44,7.29,7.29,0,0,0-.32,2.34l-2.06-.88a8.25,8.25,0,0,1,.77-3.59A6.14,6.14,0,0,1,269.22,35a6.67,6.67,0,0,1,3.68-1,6.15,6.15,0,0,1,2.85.58,5,5,0,0,1,1.78,1.46,6.48,6.48,0,0,1,1,1.9,9.65,9.65,0,0,1,.41,1.91c.06.6.09,1.08.09,1.46V50Z"/><path class="cls-3" d="M289.5,50.45a7.48,7.48,0,0,1-4.1-1.07,7,7,0,0,1-2.6-2.93,9.6,9.6,0,0,1-.91-4.2,9.41,9.41,0,0,1,.94-4.23,7.14,7.14,0,0,1,2.64-2.91,7.63,7.63,0,0,1,4.07-1A7.39,7.39,0,0,1,294,35.39a6.08,6.08,0,0,1,2.4,3.63L293,40a3.88,3.88,0,0,0-1.34-2,3.52,3.52,0,0,0-2.13-.69,3.66,3.66,0,0,0-2.23.64A3.59,3.59,0,0,0,286,39.71a7.24,7.24,0,0,0-.42,2.54,6,6,0,0,0,1,3.59,4,4,0,0,0,5.13.73,3.82,3.82,0,0,0,1.2-1.83l3.54.79a6.66,6.66,0,0,1-2.52,3.65A7.42,7.42,0,0,1,289.5,50.45Z"/><path class="cls-3" d="M299.16,32.13V29h3.47v3.18Zm0,17.89V34.49h3.47V50Z"/><path class="cls-3" d="M306.92,56.93V34.49H310v10.9h.43V56.93Zm7.49-6.48a6.44,6.44,0,0,1-3.81-1.08,6.55,6.55,0,0,1-2.32-2.94,11.79,11.79,0,0,1,0-8.38,6.68,6.68,0,0,1,2.28-2.92,6.2,6.2,0,0,1,3.72-1.07,6.71,6.71,0,0,1,3.82,1.07,7.16,7.16,0,0,1,2.51,2.92,10.38,10.38,0,0,1,0,8.39,7,7,0,0,1-2.47,2.93A6.5,6.5,0,0,1,314.41,50.45Zm-.53-3.1a3.57,3.57,0,0,0,2.23-.68,4,4,0,0,0,1.3-1.83,7.57,7.57,0,0,0,.42-2.59,7.2,7.2,0,0,0-.43-2.56,4,4,0,0,0-1.34-1.84,3.68,3.68,0,0,0-2.3-.69,3.46,3.46,0,0,0-2.15.64,3.65,3.65,0,0,0-1.23,1.79,8,8,0,0,0-.4,2.66,8.06,8.06,0,0,0,.4,2.67,3.67,3.67,0,0,0,1.25,1.79A3.71,3.71,0,0,0,313.88,47.35Z"/><path class="cls-3" d="M325,32.13V29h3.47v3.18ZM325,50V34.49h3.47V50Z"/><path class="cls-3" d="M339.59,50.45a7.73,7.73,0,0,1-4.07-1.05,7.11,7.11,0,0,1-2.69-2.9,9.86,9.86,0,0,1,0-8.53,7.19,7.19,0,0,1,2.72-2.88,8.43,8.43,0,0,1,8.11,0,7.17,7.17,0,0,1,2.7,2.89,9,9,0,0,1,1,4.25,9.11,9.11,0,0,1-1,4.27,7.2,7.2,0,0,1-2.71,2.89A7.74,7.74,0,0,1,339.59,50.45Zm0-3.25a3.55,3.55,0,0,0,3.08-1.38,5.92,5.92,0,0,0,1-3.57,5.83,5.83,0,0,0-1-3.6,3.62,3.62,0,0,0-3.07-1.34,3.89,3.89,0,0,0-2.29.62A3.71,3.71,0,0,0,336,39.67a7.12,7.12,0,0,0-.43,2.58,5.78,5.78,0,0,0,1,3.61A3.57,3.57,0,0,0,339.59,47.2Z"/><path class="cls-4" d="M131.25,69.72l3.07-8.37h.94l3.1,8.37h-.84l-2-5.47c-.12-.31-.24-.66-.37-1.07s-.29-.89-.46-1.47h.17c-.17.58-.33,1.07-.46,1.49s-.25.76-.36,1l-2,5.47Zm1.43-2.49v-.71h4.25v.71Z"/><path class="cls-4" d="M139.46,62.06v-.71h6.1v.71h-2.65v7.66h-.79V62.06Z"/><path class="cls-4" d="M148.42,69.72V61.35h4.89v.71h-4.09v3.09h3.83v.72h-3.83V69h4.17v.71Z"/><path class="cls-4" d="M156.42,69.72V61.35h.93L161.16,67c.11.16.22.35.35.55s.27.44.42.69l.43.78h-.13c0-.28,0-.55,0-.81s0-.51,0-.74V61.35h.8v8.37H162l-3.56-5.29-.42-.65-.46-.75L157,62h.15c0,.35,0,.67,0,1s0,.57,0,.8,0,.45,0,.61v5.3Z"/><path class="cls-4" d="M169.57,69.83a3.43,3.43,0,0,1-1.88-.52,3.6,3.6,0,0,1-1.28-1.49,5.24,5.24,0,0,1-.47-2.28,5.18,5.18,0,0,1,.47-2.28,3.63,3.63,0,0,1,1.28-1.5,3.43,3.43,0,0,1,1.88-.52,3.69,3.69,0,0,1,1.23.2,3.22,3.22,0,0,1,1,.59,3,3,0,0,1,.71.87,3.31,3.31,0,0,1,.38,1.08h-.8a2.42,2.42,0,0,0-.31-.8,2.36,2.36,0,0,0-.55-.63,2.5,2.5,0,0,0-.75-.42,2.67,2.67,0,0,0-.91-.15,2.71,2.71,0,0,0-1.44.41,2.94,2.94,0,0,0-1,1.21,5.14,5.14,0,0,0,0,3.88,2.87,2.87,0,0,0,1,1.2,2.64,2.64,0,0,0,1.43.4,2.67,2.67,0,0,0,.91-.14,2.5,2.5,0,0,0,.75-.42,2.25,2.25,0,0,0,.55-.64,2.37,2.37,0,0,0,.31-.79h.8a3.32,3.32,0,0,1-.37,1.07,3.52,3.52,0,0,1-.71.87,3.15,3.15,0,0,1-1,.59A3.55,3.55,0,0,1,169.57,69.83Z"/><path class="cls-4" d="M176.64,61.35v8.37h-.8V61.35Z"/><path class="cls-4" d="M183.27,69.83a3.33,3.33,0,0,1-1.88-.53,3.56,3.56,0,0,1-1.29-1.49,5.86,5.86,0,0,1,0-4.55,3.58,3.58,0,0,1,1.29-1.5,3.66,3.66,0,0,1,3.76,0,3.63,3.63,0,0,1,1.28,1.5,5.18,5.18,0,0,1,.46,2.28,5.24,5.24,0,0,1-.46,2.28,3.6,3.6,0,0,1-1.28,1.49A3.41,3.41,0,0,1,183.27,69.83Zm0-.75a2.62,2.62,0,0,0,1.46-.42,2.85,2.85,0,0,0,1-1.21,4.61,4.61,0,0,0,.37-1.91,4.66,4.66,0,0,0-.37-1.92,2.94,2.94,0,0,0-1-1.22,2.62,2.62,0,0,0-1.46-.42,2.66,2.66,0,0,0-1.47.42,2.94,2.94,0,0,0-1,1.22,4.66,4.66,0,0,0-.37,1.92,4.56,4.56,0,0,0,.37,1.9,2.88,2.88,0,0,0,1,1.22A2.66,2.66,0,0,0,183.27,69.08Zm-.34-8.59.81-1.61h.87l-1,1.61Z"/><path class="cls-4" d="M189.89,69.72V61.35h.92L194.62,67l.36.55c.13.21.27.44.41.69s.29.51.43.78h-.13c0-.28,0-.55-.05-.81s0-.51,0-.74,0-.43,0-.61V61.35h.8v8.37h-.93l-3.56-5.29-.42-.65q-.21-.33-.45-.75l-.59-1h.16c0,.35,0,.67,0,1s0,.57,0,.8,0,.45,0,.61v5.3Z"/><path class="cls-4" d="M204.16,69.72V61.35h2.73a3,3,0,0,1,1.49.34,2.32,2.32,0,0,1,.91.93,3,3,0,0,1,0,2.64,2.29,2.29,0,0,1-.91.94,2.89,2.89,0,0,1-1.48.34h-2.13v-.71h2.09a2.22,2.22,0,0,0,1.09-.25,1.53,1.53,0,0,0,.64-.67,2.16,2.16,0,0,0,.21-1,2.19,2.19,0,0,0-.21-1,1.55,1.55,0,0,0-.65-.67,2.21,2.21,0,0,0-1.08-.24H205v7.66Z"/><path class="cls-4" d="M215.06,69.86a3.6,3.6,0,0,1-1.49-.28,2.36,2.36,0,0,1-1-.8,2.23,2.23,0,0,1-.41-1.18H213a1.5,1.5,0,0,0,.33.84,1.68,1.68,0,0,0,.74.52,3,3,0,0,0,2.11,0,1.86,1.86,0,0,0,.76-.58,1.45,1.45,0,0,0,.27-.87,1.09,1.09,0,0,0-.22-.7,1.63,1.63,0,0,0-.6-.48,5.37,5.37,0,0,0-.92-.35l-1-.29a3.46,3.46,0,0,1-1.54-.82,1.76,1.76,0,0,1-.54-1.32,2,2,0,0,1,.36-1.19,2.4,2.4,0,0,1,1-.81,3.34,3.34,0,0,1,1.4-.29,3.2,3.2,0,0,1,1.39.29,2.44,2.44,0,0,1,1,.79,2.19,2.19,0,0,1,.38,1.15h-.78a1.52,1.52,0,0,0-.61-1.11,2.21,2.21,0,0,0-1.36-.4,2.51,2.51,0,0,0-1,.2,1.61,1.61,0,0,0-.68.54,1.31,1.31,0,0,0-.25.8,1,1,0,0,0,.25.72,2,2,0,0,0,.62.48,6.24,6.24,0,0,0,.78.3l.88.25a6.56,6.56,0,0,1,.81.29,3.41,3.41,0,0,1,.74.43,2.19,2.19,0,0,1,.53.64,1.89,1.89,0,0,1,.2.89,2.12,2.12,0,0,1-.35,1.21,2.27,2.27,0,0,1-1,.85A3.59,3.59,0,0,1,215.06,69.86Z"/><path class="cls-4" d="M221.76,61.35v8.37H221V61.35Z"/><path class="cls-4" d="M228.39,69.83a3.41,3.41,0,0,1-1.88-.52,3.56,3.56,0,0,1-1.29-1.49,5.24,5.24,0,0,1-.46-2.28,5.18,5.18,0,0,1,.46-2.28,3.58,3.58,0,0,1,1.29-1.5,3.41,3.41,0,0,1,1.88-.52,3.78,3.78,0,0,1,1.23.2,3.22,3.22,0,0,1,1,.59,3.15,3.15,0,0,1,.71.87,3.56,3.56,0,0,1,.38,1.08h-.8a2.42,2.42,0,0,0-.31-.8,2.55,2.55,0,0,0-.55-.63,2.5,2.5,0,0,0-.75-.42,2.77,2.77,0,0,0-2.35.26,2.87,2.87,0,0,0-1,1.21,5,5,0,0,0,0,3.88,2.8,2.8,0,0,0,1,1.2,2.64,2.64,0,0,0,1.43.4,2.67,2.67,0,0,0,.91-.14,2.5,2.5,0,0,0,.75-.42,2.42,2.42,0,0,0,.55-.64,2.37,2.37,0,0,0,.31-.79h.8a3.33,3.33,0,0,1-.38,1.07,3.12,3.12,0,0,1-.71.87,3,3,0,0,1-1,.59A3.45,3.45,0,0,1,228.39,69.83Z"/><path class="cls-4" d="M237.92,69.83A3.31,3.31,0,0,1,236,69.3a3.56,3.56,0,0,1-1.29-1.49,5.74,5.74,0,0,1,0-4.55,3.58,3.58,0,0,1,1.29-1.5,3.38,3.38,0,0,1,1.88-.52,3.43,3.43,0,0,1,1.88.52,3.63,3.63,0,0,1,1.28,1.5,5.18,5.18,0,0,1,.46,2.28,5.24,5.24,0,0,1-.46,2.28,3.6,3.6,0,0,1-1.28,1.49A3.43,3.43,0,0,1,237.92,69.83Zm0-.75a2.62,2.62,0,0,0,1.46-.42,2.83,2.83,0,0,0,1-1.21,4.46,4.46,0,0,0,.38-1.91,4.5,4.5,0,0,0-.38-1.92,2.92,2.92,0,0,0-1-1.22,2.77,2.77,0,0,0-2.93,0,2.94,2.94,0,0,0-1,1.22,4.51,4.51,0,0,0-.37,1.92,4.41,4.41,0,0,0,.37,1.9,2.88,2.88,0,0,0,1,1.22A2.63,2.63,0,0,0,237.92,69.08Z"/><path class="cls-4" d="M244.54,69.72V61.35h.8V69h4v.71Z"/><path class="cls-4" d="M255.12,69.83a3.33,3.33,0,0,1-1.88-.53A3.56,3.56,0,0,1,252,67.81a5.86,5.86,0,0,1,0-4.55,3.58,3.58,0,0,1,1.29-1.5,3.66,3.66,0,0,1,3.76,0,3.63,3.63,0,0,1,1.28,1.5,5.18,5.18,0,0,1,.46,2.28,5.24,5.24,0,0,1-.46,2.28A3.6,3.6,0,0,1,257,69.31,3.43,3.43,0,0,1,255.12,69.83Zm0-.75a2.62,2.62,0,0,0,1.46-.42,2.85,2.85,0,0,0,1-1.21,4.61,4.61,0,0,0,.37-1.91,4.66,4.66,0,0,0-.37-1.92,2.94,2.94,0,0,0-1-1.22,2.77,2.77,0,0,0-2.93,0,2.94,2.94,0,0,0-1,1.22,4.66,4.66,0,0,0-.37,1.92,4.56,4.56,0,0,0,.37,1.9,2.88,2.88,0,0,0,1,1.22A2.63,2.63,0,0,0,255.12,69.08Zm-.34-8.59.81-1.61h.87l-1,1.61Z"/><path class="cls-4" d="M265,69.83a3.4,3.4,0,0,1-1.92-.53,3.47,3.47,0,0,1-1.28-1.49,5.86,5.86,0,0,1,0-4.55,3.47,3.47,0,0,1,1.27-1.5,3.37,3.37,0,0,1,1.87-.52,3.62,3.62,0,0,1,1.26.21,3.3,3.3,0,0,1,1,.6,3.34,3.34,0,0,1,.72.87,3.07,3.07,0,0,1,.37,1h-.82a2.91,2.91,0,0,0-.32-.77,2.73,2.73,0,0,0-.54-.63,2.39,2.39,0,0,0-.74-.43A2.52,2.52,0,0,0,265,62a2.59,2.59,0,0,0-1.45.42,2.94,2.94,0,0,0-1,1.22,4.63,4.63,0,0,0-.37,1.92,4.56,4.56,0,0,0,.37,1.9,2.83,2.83,0,0,0,1,1.22,2.68,2.68,0,0,0,1.49.42,2.62,2.62,0,0,0,1.36-.34,2.2,2.2,0,0,0,.9-1,3.11,3.11,0,0,0,.33-1.48l.24.07H265.2v-.71h3.2v.69a3.82,3.82,0,0,1-.43,1.84,3.08,3.08,0,0,1-1.19,1.21A3.47,3.47,0,0,1,265,69.83Z"/><path class="cls-4" d="M272.24,61.35v8.37h-.79V61.35Z"/><path class="cls-4" d="M278.87,69.83a3.43,3.43,0,0,1-1.88-.52,3.6,3.6,0,0,1-1.28-1.49,5.24,5.24,0,0,1-.47-2.28,5.18,5.18,0,0,1,.47-2.28,3.63,3.63,0,0,1,1.28-1.5,3.43,3.43,0,0,1,1.88-.52,3.69,3.69,0,0,1,1.23.2,3.22,3.22,0,0,1,1,.59,3,3,0,0,1,.71.87,3.31,3.31,0,0,1,.38,1.08h-.8a2.65,2.65,0,0,0-.3-.8,2.4,2.4,0,0,0-.56-.63,2.5,2.5,0,0,0-.75-.42,2.75,2.75,0,0,0-2.34.26,2.89,2.89,0,0,0-1,1.21,4.47,4.47,0,0,0-.38,1.94,4.33,4.33,0,0,0,.39,1.94,2.78,2.78,0,0,0,1,1.2,2.85,2.85,0,0,0,2.34.26,2.5,2.5,0,0,0,.75-.42,2.29,2.29,0,0,0,.56-.64,2.59,2.59,0,0,0,.3-.79h.8A3.22,3.22,0,0,1,281.11,69a3,3,0,0,1-1,.59A3.55,3.55,0,0,1,278.87,69.83Z"/><path class="cls-4" d="M284.13,69.72l3.07-8.37h.94l3.1,8.37h-.85l-2-5.47c-.12-.31-.24-.66-.37-1.07s-.29-.89-.46-1.47h.17c-.17.58-.33,1.07-.46,1.49l-.36,1L285,69.72Zm1.43-2.49v-.71h4.25v.71Z"/></svg>