<?xml version="1.0" encoding="utf-8"?>
<!-- Generator: Adobe Illustrator 24.0.1, SVG Export Plug-In . SVG Version: 6.00 Build 0)  -->
<svg version="1.1" id="Capa_1" xmlns="http://www.w3.org/2000/svg" xmlns:xlink="http://www.w3.org/1999/xlink" x="0px" y="0px"
	 viewBox="0 0 269.3 155.9" style="enable-background:new 0 0 269.3 155.9;" xml:space="preserve">
<style type="text/css">
	.st0{fill:#F7F4F1;}
</style>
<title>logo</title>
<path class="st0" d="M104.4,28.4l-1.4,2c-1.9,2.4-3.4,5.1-4.6,7.9c-1.4,3.1-2.3,6.4-2.9,9.8c-0.3,2-0.5,4.1-0.5,6.2
	c0,1.6,0,3.2,0.1,4.8c0.3,2.7,0.8,5.4,1.7,8c1.2,3.8,3.1,7.3,5.6,10.3c5.3,6.4,12.8,10.8,21,12.2c1.9,0.3,3.9,0.7,5.8,0.8
	c1.7,0.1,3.5,0,5.2-0.1c2-0.1,3.9-0.5,5.8-1c4.7-1.2,9.1-3.1,13.2-5.7l0.6-0.4l0.1,0.1c-0.3,0.3-0.6,0.7-1,1
	c-3.4,3.1-7.3,5.6-11.6,7.3c-2.8,1.3-5.8,2.2-8.9,2.6c-2.9,0.4-5.8,0.6-8.7,0.3c-4.1-0.3-8.2-1.3-12-3c-8.8-4-15.7-11.2-19.2-20.2
	c-1.1-2.7-1.9-5.5-2.2-8.4c-0.2-1.9-0.4-3.8-0.4-5.7c0-2.1,0.2-4.1,0.6-6.1c0.5-3,1.4-5.8,2.6-8.6c1.3-2.9,2.9-5.6,4.9-8.1
	c1.2-1.6,2.6-3,4-4.5C102.9,29.4,103.6,28.9,104.4,28.4L104.4,28.4z"/>
<path class="st0" d="M129.6,11.1c0.5-0.2,1-0.5,1.5-0.6c1.7-0.5,3.4-1,5.1-1.4c2.4-0.5,4.8-0.6,7.2-0.3c1.7,0.1,3.4,0.4,5.1,0.7
	c3.4,0.6,6.6,1.8,9.6,3.5c2.9,1.6,5.6,3.6,7.9,6.1c2.8,2.9,5,6.3,6.6,10c0.9,2.1,1.6,4.2,2,6.4c0.3,1.7,0.5,3.4,0.6,5.1
	c0.1,2,0.1,4,0,6c-0.2,2.6-0.7,5.1-1.5,7.6c-0.6,2.1-1.4,4.1-2.3,6c-1.2,2.6-2.7,5-4.4,7.3c-2.2,2.9-4.8,5.5-7.7,7.7
	c-2.4,1.9-5,3.4-7.7,4.7c-2,0.9-4.2,1.7-6.4,2.2c-0.7,0.1-1.3,0.2-2,0.3l-0.1-0.2l1-0.4c3.7-1.5,7.1-3.5,10.3-5.9
	c1.9-1.5,3.7-3.1,5.4-4.9c2.1-2.2,3.9-4.6,5.4-7.2c2-3.4,3.4-7,4.3-10.8c0.4-1.7,0.7-3.4,0.8-5.1c0.2-1.9,0.2-3.7,0.2-5.6
	c-0.1-2.1-0.4-4.3-1-6.4c-1.5-5.9-4.6-11.4-9-15.6c-3.3-3.1-7.2-5.6-11.4-7.2c-1.9-0.8-3.9-1.3-6-1.6c-1.9-0.3-3.7-0.4-5.6-0.6
	c-0.9-0.1-1.9-0.1-2.8-0.1c-1.3,0.1-2.5,0.2-3.8,0.3l-1.2,0.1L129.6,11.1z"/>
<path class="st0" d="M134,41.6c0.7-1.7,1.4-3.3,1.9-5c0.5-1.4,0.7-3,0.6-4.5c-0.1-1.3-0.6-2.6-1.3-3.8c-1-1.5-2.2-2.8-3.7-3.9
	c-2.2-1.7-4.2-3.8-5.8-6.2c-1.2-1.9-1.7-4.1-1.4-6.2c0.2-2.1,1.3-4.1,3-5.4c0,0.1,0,0.3,0,0.4c-0.4,1.1-0.6,2.2-0.6,3.4
	c0,2,0.7,3.9,1.9,5.4c1.4,1.7,3,3.2,4.8,4.4c1.8,1.2,3.4,2.6,4.9,4.1c1.6,1.7,2.7,3.8,3,6.1c0.5,3.2-0.1,6.5-1.6,9.4
	c-1.1,2.1-2.5,4-4.3,5.5c0.5,1.7,1,3.5,1.4,5.2c0.7,2.5,1.2,5.1,1.5,7.7c0.4,2.9,0.5,5.7,0.4,8.6c-0.1,1.9-0.3,3.7-0.6,5.6
	c-0.4,3.6-1.3,7.1-2.7,10.4c-0.6,1.6-1.5,3.1-2.3,4.6c-0.1,0.2-0.2,0.3-0.4,0.5l-0.1-0.1c0-0.4,0.1-0.7,0.1-1.1
	c0.4-2.1,0.8-4.1,1.1-6.2c0.3-1.7,0.5-3.4,0.7-5.1c0.2-1.9,0.4-3.8,0.6-5.8c0-0.3,0-0.5,0-0.8c0-2,0.1-4.1,0-6.1
	c-0.3-5.1-1.2-10.1-2.8-15c-1.8-5.9-4.2-11.6-7-17c-1.3-2.5-2.9-4.8-4.7-7c-1.8-2.1-3.8-4-6.1-5.7c-0.4-0.2-0.8-0.4-1.2-0.7
	c0.6-0.1,1.2-0.1,1.8,0.1c2.3,0.7,4.4,1.8,6.3,3.3c3.2,2.6,5.8,5.9,7.6,9.6c1.9,3.5,3.5,7.1,4.9,10.8
	C133.9,41.4,133.9,41.4,134,41.6z"/>
<path class="st0" d="M130.5,75c-1.6-2.7-3.5-5.2-5.6-7.4c-2.2-2.2-4.6-4.1-7.2-5.8c0.2,0.2,0.4,0.5,0.6,0.7c1.3,1.4,2.6,2.8,3.9,4.1
	c2,2.1,3.8,4.5,5.4,7c0.4,0.7,0.8,1.5,1.2,2.2c0,0.1,0,0.2,0.1,0.4c-1.1-0.1-2.1-0.2-3.2-0.3c-1.6-0.2-3.1-0.6-4.6-1.2
	c-1.9-0.7-3.6-1.9-5-3.3c-1.6-1.8-2.7-4-3.2-6.4c-0.3-1.7-0.5-3.4-0.3-5.1c0.1-1.4,0.3-2.8,0.5-4.3c0.4,0.1,0.8,0.2,1.1,0.2
	c3.4,0.8,6.6,1.9,9.7,3.5c2.7,1.3,4.9,3.6,6.2,6.3c0.8,1.7,1.2,3.6,1.1,5.4C131.4,72.4,131.1,73.7,130.5,75z"/>
<path class="st0" d="M157,40.8c0.1,1,0.2,1.8,0.2,2.7c0,1.3-0.1,2.7-0.2,4c-0.2,2-0.7,4.1-1.6,5.9c-1.2,2.7-3.3,4.9-6,6.2
	c-1.6,0.8-3.3,1.4-5,1.8c-0.4,0.1-0.8,0.1-1.2,0.1c1.5-5.2,4.3-10,8.2-13.9c-2.3,1.4-4.2,3.3-5.8,5.5c-1.5,2.3-2.7,4.7-3.8,7.2
	c-0.1-0.2-0.3-0.4-0.4-0.6c-0.7-2-1-4.2-0.9-6.3c0.1-1.6,0.5-3.1,1.1-4.5c1.1-2.1,2.9-3.9,5-5c1.7-1,3.5-1.7,5.4-2.2
	C153.8,41.4,155.4,41.1,157,40.8z"/>
<path class="st0" d="M105.7,22.6c0.6,0.1,1.1,0.1,1.7,0.3c2.3,0.4,4.5,1.3,6.4,2.6c2.5,1.8,4.2,4.4,4.9,7.4c0.4,1.8,0.7,3.7,1.1,5.6
	c0.3,1.5,0.9,2.9,1.8,4.2c1.2,1.7,2.9,2.9,4.9,3.5c1,0.3,2.1,0.6,3.1,0.9c0.4,0.1,0.7,0.3,0.9,0.7c0.3,0.5,0.2,0.6-0.3,0.8
	c-0.7,0.2-1.3,0.4-2,0.6c-1.1,0.3-2.1,0.4-3.2,0.5c-1.9,0-3.8-0.6-5.4-1.8c-2.4-1.9-4-4.7-4.5-7.7c-0.4-2.1-0.6-4.2-1-6.3
	c-0.5-4.1-2.9-7.7-6.5-9.8l-1.9-1.1L105.7,22.6z"/>
<path class="st0" d="M6.1,129.2v-21.6H20v3.4H9.7v5.3h8.5v3.4H9.7v6.1H20v3.4H6.1z"/>
<path class="st0" d="M23.9,129.2v-22.1h3.6v22.1H23.9z"/>
<path class="st0" d="M38,129.2v-21.6h13v3.6h-9.4v5.4h7.6v3.6h-7.6v9H38z"/>
<path class="st0" d="M54,110.6v-3.3h3.6v3.3H54z M54,129.2V113h3.6v16.2L54,129.2z"/>
<path class="st0" d="M62.1,129.2V113h3.2v5h0.4v11.2L62.1,129.2z M73.3,129.2v-7.8c0-0.6,0-1.1-0.1-1.7c-0.1-0.6-0.2-1.2-0.5-1.8
	c-0.5-1.3-1.8-2.1-3.2-2c-0.5,0-0.9,0.1-1.4,0.2c-0.5,0.2-0.9,0.5-1.2,0.8c-0.4,0.4-0.7,0.9-0.9,1.5c-0.2,0.8-0.4,1.6-0.3,2.4
	l-2.2-0.9c0-1.3,0.3-2.6,0.8-3.8c0.5-1.1,1.3-2,2.4-2.7c1.2-0.7,2.5-1,3.8-1c1,0,2.1,0.2,3,0.6c0.7,0.4,1.4,0.9,1.9,1.5
	c0.4,0.6,0.8,1.3,1,2c0.2,0.7,0.4,1.3,0.4,2c0.1,0.6,0.1,1.1,0.1,1.5v9L73.3,129.2z"/>
<path class="st0" d="M93.4,129.7c-1.4,0-2.7-0.4-3.9-1.1c-1.1-0.8-2-1.8-2.6-3.1c-0.6-1.4-0.9-2.9-0.9-4.4c0-1.5,0.3-3,0.9-4.4
	c0.6-1.2,1.5-2.3,2.6-3c1.2-0.8,2.6-1.2,4-1.1c1.4,0,2.7,0.3,3.9,1.1c1.1,0.8,1.9,1.8,2.4,3c1.1,2.8,1.1,5.9,0,8.7
	c-0.5,1.2-1.3,2.3-2.4,3.1C96.2,129.3,94.8,129.7,93.4,129.7z M94,126.4c1.7,0.1,3.2-0.9,3.7-2.5c0.3-0.9,0.4-1.8,0.4-2.8
	c0-0.9-0.1-1.9-0.4-2.8c-0.2-0.7-0.7-1.4-1.3-1.9c-0.7-0.5-1.4-0.7-2.2-0.7c-0.9,0-1.7,0.2-2.4,0.7c-0.6,0.5-1.1,1.2-1.4,1.9
	c-0.3,0.9-0.5,1.8-0.4,2.7c0,0.9,0.1,1.8,0.4,2.7c0.3,0.8,0.7,1.4,1.4,1.9C92.3,126.2,93.2,126.5,94,126.4L94,126.4z M98,129.2
	v-11.4h-0.4v-10.2h3.7v21.6H98z"/>
<path class="st0" d="M112.8,129.7c-1.5,0-3-0.3-4.3-1.1c-1.2-0.7-2.2-1.7-2.9-3c-0.7-1.3-1-2.8-1-4.3c0-1.6,0.3-3.2,1-4.6
	c0.6-1.2,1.6-2.3,2.8-3c1.3-0.7,2.7-1.1,4.2-1.1c1.5,0,3,0.4,4.3,1.2c1.2,0.8,2.1,2,2.6,3.3c0.6,1.6,0.8,3.3,0.7,5.1h-3.6v-1.3
	c0.1-1.4-0.2-2.7-0.9-3.9c-0.7-0.9-1.8-1.3-2.9-1.2c-1.3-0.1-2.5,0.4-3.3,1.4c-0.8,1.2-1.2,2.6-1.1,4c-0.1,1.4,0.3,2.7,1.1,3.8
	c0.8,0.9,1.9,1.4,3.2,1.3c0.8,0,1.6-0.2,2.3-0.6c0.7-0.4,1.2-1,1.5-1.7l3.6,1.1c-0.6,1.4-1.6,2.6-2.9,3.4
	C115.8,129.3,114.3,129.7,112.8,129.7z M107.2,122.1v-2.7h11.2v2.7H107.2z"/>
<path class="st0" d="M123.8,129.2v-22.1h3.6v22.1H123.8z"/>
<path class="st0" d="M137.9,129.2v-21.6h8.9h0.8c0.3,0,0.6,0,0.9,0.1c1.1,0.1,2.2,0.6,3.1,1.2c0.8,0.6,1.4,1.5,1.8,2.4
	c0.8,2.1,0.8,4.4,0,6.5c-0.4,1-1,1.8-1.8,2.4c-0.9,0.7-2,1.1-3.1,1.2c-0.3,0-0.6,0.1-0.9,0.1h-0.8h-5.3v7.5L137.9,129.2z
	 M141.5,118.3h5.2h0.7c0.2,0,0.5-0.1,0.7-0.1c0.5-0.1,1-0.4,1.4-0.8c0.3-0.4,0.6-0.8,0.7-1.3c0.1-0.5,0.2-0.9,0.2-1.4
	c0-0.5-0.1-1-0.2-1.4c-0.1-0.5-0.4-0.9-0.7-1.3c-0.4-0.4-0.9-0.7-1.4-0.8c-0.2-0.1-0.5-0.1-0.7-0.1h-0.7h-5.2V118.3z"/>
<path class="st0" d="M157,129.2V113h3.2v4l-0.4-0.5c0.2-0.5,0.5-1,0.8-1.5c0.3-0.4,0.7-0.8,1.2-1.1c0.4-0.3,0.9-0.5,1.3-0.6
	c0.5-0.2,1-0.2,1.5-0.3c0.5,0,1,0,1.5,0.1v3.4c-0.5-0.1-1.1-0.2-1.6-0.1c-0.6,0-1.2,0.2-1.7,0.5c-0.5,0.2-0.9,0.6-1.2,1
	c-0.3,0.4-0.6,0.9-0.7,1.4c-0.2,0.6-0.2,1.2-0.2,1.7v8.2L157,129.2z"/>
<path class="st0" d="M169.3,110.6v-3.3h3.6v3.3H169.3z M169.3,129.2V113h3.6v16.2L169.3,129.2z"/>
<path class="st0" d="M177.4,129.2V113h3.2v5h0.4v11.2L177.4,129.2z M188.6,129.2v-7.8c0-0.6,0-1.1-0.1-1.7c-0.1-0.6-0.2-1.2-0.5-1.8
	c-0.5-1.3-1.8-2.1-3.2-2c-0.5,0-0.9,0.1-1.4,0.2c-0.5,0.2-0.9,0.4-1.2,0.8c-0.4,0.4-0.7,0.9-0.9,1.5c-0.2,0.8-0.4,1.6-0.3,2.4
	l-2.1-0.9c0-1.3,0.3-2.6,0.8-3.8c0.5-1.1,1.3-2,2.4-2.7c1.2-0.7,2.5-1,3.8-1c1,0,2.1,0.2,3,0.6c0.7,0.4,1.4,0.9,1.9,1.5
	c0.4,0.6,0.8,1.3,1,2c0.2,0.7,0.4,1.3,0.4,2c0.1,0.6,0.1,1.1,0.1,1.5v9L188.6,129.2z"/>
<path class="st0" d="M203.2,129.7c-1.5,0-3-0.3-4.3-1.1c-1.2-0.7-2.1-1.8-2.7-3c-0.7-1.4-1-2.9-1-4.4c0-1.5,0.3-3,1-4.4
	c0.6-1.2,1.6-2.3,2.8-3c1.3-0.8,2.8-1.1,4.2-1.1c1.7-0.1,3.4,0.4,4.8,1.3c1.3,0.9,2.2,2.3,2.5,3.8l-3.6,1c-0.2-0.8-0.7-1.5-1.4-2
	c-0.6-0.5-1.4-0.7-2.2-0.7c-1.7-0.1-3.2,0.9-3.7,2.5c-0.3,0.9-0.4,1.7-0.4,2.7c-0.1,1.3,0.3,2.6,1,3.7c1.3,1.6,3.6,1.9,5.4,0.8
	c0.6-0.5,1-1.2,1.2-1.9l3.7,0.8c-0.4,1.5-1.3,2.9-2.6,3.8C206.5,129.3,204.9,129.8,203.2,129.7z"/>
<path class="st0" d="M213.3,110.6v-3.3h3.6v3.3H213.3z M213.3,129.2V113h3.6v16.2L213.3,129.2z"/>
<path class="st0" d="M221.4,136.4V113h3.2v11.4h0.4v12L221.4,136.4z M229.2,129.7c-1.4,0.1-2.8-0.3-4-1.1c-1.1-0.8-1.9-1.8-2.4-3.1
	c-1.1-2.8-1.1-5.9,0-8.7c0.5-1.2,1.3-2.2,2.4-3c1.1-0.8,2.5-1.2,3.9-1.1c1.4,0,2.8,0.4,4,1.1c1.1,0.7,2,1.8,2.6,3
	c0.6,1.4,1,2.9,0.9,4.4c0,1.5-0.3,3-0.9,4.4c-0.6,1.2-1.5,2.3-2.6,3.1C231.9,129.3,230.6,129.7,229.2,129.7z M228.7,126.4
	c0.8,0,1.7-0.2,2.3-0.7c0.6-0.5,1.1-1.2,1.4-1.9c0.3-0.9,0.4-1.8,0.4-2.7c0-0.9-0.1-1.8-0.4-2.7c-0.3-0.8-0.8-1.4-1.4-1.9
	c-0.7-0.5-1.5-0.8-2.4-0.7c-0.8,0-1.6,0.2-2.2,0.7c-0.6,0.5-1.1,1.1-1.3,1.9c-0.3,0.9-0.4,1.8-0.4,2.8c0,0.9,0.1,1.9,0.4,2.8
	c0.2,0.7,0.7,1.4,1.3,1.9C227,126.2,227.8,126.5,228.7,126.4L228.7,126.4z"/>
<path class="st0" d="M240.2,110.6v-3.3h3.6v3.3H240.2z M240.2,129.2V113h3.6v16.2L240.2,129.2z"/>
<path class="st0" d="M255.5,129.7c-1.5,0-3-0.3-4.2-1.1c-1.2-0.7-2.2-1.8-2.8-3c-0.7-1.4-1-2.9-1-4.4c0-1.5,0.3-3.1,1-4.5
	c0.6-1.2,1.6-2.3,2.8-3c2.6-1.5,5.8-1.5,8.5,0c1.2,0.7,2.2,1.8,2.8,3c1.4,2.8,1.4,6.1,0,8.9c-0.6,1.2-1.6,2.3-2.8,3
	C258.4,129.3,257,129.7,255.5,129.7z M255.5,126.3c1.2,0.1,2.5-0.5,3.2-1.4c0.7-1.1,1.1-2.4,1-3.7c0.1-1.3-0.3-2.7-1.1-3.8
	c-0.8-1-2-1.5-3.2-1.4c-0.8,0-1.7,0.2-2.4,0.7c-0.6,0.4-1.1,1.1-1.4,1.8c-0.3,0.9-0.5,1.8-0.4,2.7c-0.1,1.3,0.3,2.7,1.1,3.8
	C253.1,125.8,254.3,126.3,255.5,126.3z"/>
<path class="st0" d="M38.2,149.8l3.2-8.7h1l3.2,8.7h-0.9l-2.1-5.7c-0.1-0.3-0.2-0.7-0.4-1.1s-0.3-0.9-0.5-1.5H42
	c-0.2,0.6-0.3,1.1-0.5,1.5s-0.3,0.8-0.4,1.1l-2,5.7H38.2z M39.7,147.2v-0.7h4.4v0.7H39.7z"/>
<path class="st0" d="M46.8,141.8V141h6.4v0.7h-2.8v8h-0.8v-8L46.8,141.8z"/>
<path class="st0" d="M56.1,149.8V141h5.1v0.7h-4.3v3.3h4v0.8h-4v3.2h4.3v0.8L56.1,149.8z"/>
<path class="st0" d="M64.4,149.8V141h1l4,5.9l0.4,0.6l0.4,0.7c0.2,0.3,0.3,0.5,0.4,0.8h-0.2c0-0.3,0-0.6,0-0.9s0-0.5,0-0.8V141h0.8
	v8.7h-1l-3.7-5.5c-0.2-0.2-0.3-0.4-0.4-0.7s-0.3-0.5-0.5-0.8l-0.6-1h0.2c0,0.4,0,0.7,0,1s0,0.6,0,0.9s0,0.5,0,0.6v5.5L64.4,149.8z"
	/>
<path class="st0" d="M78.2,149.9c-0.7,0-1.4-0.2-2-0.5c-0.6-0.4-1-0.9-1.3-1.6c-0.7-1.5-0.7-3.2,0-4.8c0.3-0.6,0.8-1.2,1.3-1.6
	c0.6-0.4,1.3-0.6,2-0.6c0.4,0,0.9,0.1,1.3,0.2c0.4,0.1,0.7,0.4,1,0.6c0.3,0.3,0.6,0.6,0.7,0.9c0.2,0.4,0.3,0.7,0.4,1.1h-0.8
	c-0.1-0.3-0.2-0.6-0.3-0.8c-0.2-0.3-0.3-0.5-0.6-0.7c-0.2-0.2-0.5-0.3-0.8-0.4c-0.3-0.1-0.7-0.2-1-0.1c-0.5,0-1.1,0.1-1.5,0.4
	c-0.5,0.3-0.8,0.7-1.1,1.2c-0.5,1.3-0.5,2.7,0,4c0.2,0.5,0.6,0.9,1.1,1.2c0.5,0.3,1,0.4,1.5,0.4c0.3,0,0.7,0,1-0.1
	c0.3-0.1,0.5-0.2,0.8-0.4c0.2-0.2,0.4-0.4,0.6-0.7c0.2-0.3,0.3-0.5,0.3-0.8h0.8c-0.1,0.4-0.2,0.8-0.4,1.1c-0.4,0.7-1,1.2-1.8,1.5
	C79,149.8,78.6,149.9,78.2,149.9z"/>
<path class="st0" d="M85.5,141v8.7h-0.8V141H85.5z"/>
<path class="st0" d="M92.4,149.9c-0.7,0-1.4-0.2-2-0.6c-0.6-0.4-1-0.9-1.3-1.6c-0.7-1.5-0.7-3.2,0-4.8c0.3-0.6,0.8-1.2,1.3-1.6
	c1.2-0.7,2.7-0.7,3.9,0c0.6,0.4,1.1,0.9,1.4,1.5c0.6,1.5,0.6,3.2,0,4.8c-0.3,0.6-0.8,1.2-1.3,1.6C93.8,149.7,93.1,149.9,92.4,149.9z
	 M92.4,149.1c0.5,0,1.1-0.1,1.5-0.4c0.5-0.3,0.8-0.8,1-1.3c0.5-1.3,0.5-2.7,0-4c-0.2-0.5-0.6-0.9-1-1.3c-0.5-0.3-1-0.5-1.5-0.4
	c-0.5,0-1.1,0.1-1.5,0.4c-0.5,0.3-0.8,0.8-1.1,1.3c-0.3,0.6-0.4,1.3-0.4,2c0,0.7,0.1,1.4,0.4,2c0.2,0.5,0.6,1,1.1,1.3
	C91.4,149,91.9,149.1,92.4,149.1z M92.1,140.1l0.8-1.7h0.9l-1.1,1.7H92.1z"/>
<path class="st0" d="M99.3,149.8V141h1l4,5.9c0.1,0.2,0.2,0.4,0.4,0.6l0.4,0.7c0.2,0.3,0.3,0.5,0.4,0.8h-0.1c0-0.3,0-0.6-0.1-0.9
	s0-0.5,0-0.8V141h0.8v8.7h-1l-3.7-5.5c-0.2-0.2-0.3-0.4-0.4-0.7s-0.3-0.5-0.5-0.8l-0.6-1h0.2c0,0.4,0,0.7,0,1s0,0.6,0,0.9
	s0,0.5,0,0.6v5.5L99.3,149.8z"/>
<path class="st0" d="M114.2,149.8V141h2.8c0.5,0,1.1,0.1,1.6,0.4c0.4,0.2,0.8,0.6,1,1c0.4,0.9,0.4,1.9,0,2.8c-0.2,0.4-0.5,0.8-0.9,1
	c-0.5,0.3-1,0.4-1.6,0.4h-2.2v-0.7h2.2c0.4,0,0.8-0.1,1.1-0.3c0.3-0.2,0.5-0.4,0.7-0.7c0.3-0.6,0.3-1.4,0-2
	c-0.1-0.3-0.4-0.5-0.7-0.7c-0.4-0.2-0.7-0.3-1.1-0.2h-2v8L114.2,149.8z"/>
<path class="st0" d="M125.6,149.9c-0.5,0-1.1-0.1-1.6-0.3c-0.4-0.2-0.7-0.5-1-0.8c-0.3-0.4-0.4-0.8-0.4-1.2h0.8
	c0,0.3,0.1,0.6,0.3,0.9c0.2,0.2,0.5,0.4,0.8,0.5c0.3,0.1,0.7,0.2,1,0.2c0.4,0,0.8-0.1,1.2-0.2c0.3-0.1,0.6-0.3,0.8-0.6
	c0.2-0.3,0.3-0.6,0.3-0.9c0-0.3-0.1-0.5-0.2-0.7c-0.2-0.2-0.4-0.4-0.6-0.5c-0.3-0.2-0.7-0.3-1-0.4l-1-0.3c-0.6-0.2-1.1-0.4-1.6-0.9
	c-0.4-0.4-0.6-0.9-0.6-1.4c0-0.4,0.1-0.9,0.4-1.2c0.3-0.4,0.6-0.6,1-0.8c0.5-0.2,1-0.3,1.5-0.3c0.5,0,1,0.1,1.4,0.3
	c0.4,0.2,0.7,0.5,1,0.8c0.2,0.4,0.4,0.8,0.4,1.2h-0.8c0-0.5-0.3-0.9-0.6-1.1c-0.4-0.3-0.9-0.4-1.4-0.4c-0.3,0-0.7,0.1-1,0.2
	c-0.3,0.1-0.5,0.3-0.7,0.6c-0.2,0.2-0.3,0.5-0.3,0.8c0,0.3,0.1,0.5,0.2,0.8c0.2,0.2,0.4,0.4,0.7,0.5c0.3,0.1,0.5,0.2,0.8,0.3
	l0.9,0.3c0.3,0.1,0.6,0.2,0.8,0.3c0.3,0.1,0.5,0.3,0.8,0.5c0.2,0.2,0.4,0.4,0.5,0.7c0.1,0.3,0.2,0.6,0.2,0.9c0,0.4-0.1,0.9-0.4,1.3
	c-0.3,0.4-0.6,0.7-1.1,0.9C126.7,149.8,126.2,149.9,125.6,149.9z"/>
<path class="st0" d="M132.6,141v8.7h-0.8V141H132.6z"/>
<path class="st0" d="M139.5,149.9c-0.7,0-1.4-0.2-2-0.5c-0.6-0.4-1-0.9-1.3-1.6c-0.7-1.5-0.7-3.2,0-4.8c0.3-0.6,0.8-1.2,1.3-1.6
	c0.6-0.4,1.3-0.6,2-0.6c0.4,0,0.9,0.1,1.3,0.2c0.4,0.1,0.7,0.4,1,0.6c0.3,0.3,0.6,0.6,0.7,0.9c0.2,0.4,0.3,0.7,0.4,1.1h-0.8
	c-0.1-0.3-0.2-0.6-0.3-0.8c-0.2-0.3-0.3-0.5-0.6-0.7c-0.2-0.2-0.5-0.3-0.8-0.4c-0.3-0.1-0.7-0.2-1-0.1c-0.5,0-1,0.1-1.5,0.4
	c-0.5,0.3-0.8,0.7-1.1,1.2c-0.5,1.3-0.5,2.7,0,4c0.2,0.5,0.6,0.9,1.1,1.2c0.4,0.3,1,0.4,1.5,0.4c0.3,0,0.7,0,1-0.1
	c0.3-0.1,0.5-0.2,0.8-0.4c0.2-0.2,0.4-0.4,0.6-0.7c0.2-0.3,0.3-0.5,0.3-0.8h0.9c-0.1,0.4-0.2,0.8-0.4,1.1c-0.2,0.3-0.4,0.7-0.7,0.9
	c-0.3,0.3-0.6,0.5-1,0.6C140.4,149.8,140,149.9,139.5,149.9z"/>
<path class="st0" d="M149.4,149.9c-0.7,0-1.4-0.2-2-0.6c-0.6-0.4-1-0.9-1.3-1.6c-0.7-1.5-0.7-3.2,0-4.8c0.3-0.6,0.8-1.2,1.3-1.6
	c0.6-0.4,1.3-0.6,2-0.6c0.7,0,1.4,0.2,1.9,0.6c0.6,0.4,1,0.9,1.3,1.6c0.7,1.5,0.7,3.2,0,4.8c-0.3,0.6-0.8,1.2-1.3,1.6
	C150.8,149.7,150.1,149.9,149.4,149.9z M149.4,149.1c0.5,0,1.1-0.1,1.5-0.4c0.5-0.3,0.8-0.7,1.1-1.3c0.5-1.3,0.5-2.7,0-4
	c-0.2-0.5-0.6-1-1.1-1.3c-0.9-0.6-2.1-0.6-3.1,0c-0.5,0.3-0.8,0.8-1.1,1.3c-0.3,0.6-0.4,1.3-0.4,2c0,0.7,0.1,1.4,0.4,2
	c0.2,0.5,0.6,1,1.1,1.3C148.4,149,148.9,149.1,149.4,149.1z"/>
<path class="st0" d="M156.3,149.8V141h0.8v8h4.1v0.8L156.3,149.8z"/>
<path class="st0" d="M167.4,149.9c-0.7,0-1.4-0.2-2-0.6c-0.6-0.4-1-0.9-1.3-1.6c-0.7-1.5-0.7-3.2,0-4.8c0.3-0.6,0.8-1.2,1.3-1.6
	c0.6-0.4,1.3-0.6,2-0.6c0.7,0,1.4,0.2,2,0.6c0.6,0.4,1,0.9,1.3,1.6c0.6,1.5,0.6,3.2,0,4.8c-0.3,0.6-0.8,1.2-1.3,1.6
	C168.8,149.7,168.1,149.9,167.4,149.9z M167.4,149.1c0.5,0,1.1-0.1,1.5-0.4c0.5-0.3,0.8-0.7,1.1-1.3c0.5-1.3,0.5-2.7,0-4
	c-0.2-0.5-0.6-1-1.1-1.3c-0.9-0.6-2.1-0.6-3.1,0c-0.5,0.3-0.8,0.8-1.1,1.3c-0.3,0.6-0.4,1.3-0.4,2c0,0.7,0.1,1.4,0.4,2
	c0.2,0.5,0.6,1,1.1,1.3C166.3,149,166.8,149.1,167.4,149.1z M167,140.1l0.9-1.7h0.9l-1.1,1.7H167z"/>
<path class="st0" d="M177.7,149.9c-1.4,0-2.8-0.8-3.3-2.1c-0.6-1.5-0.6-3.2,0-4.7c0.3-0.6,0.7-1.2,1.3-1.6c0.6-0.4,1.3-0.6,2-0.6
	c0.9,0,1.7,0.3,2.4,0.9c0.6,0.5,1,1.2,1.1,2h-0.9c-0.1-0.3-0.2-0.6-0.3-0.8c-0.3-0.5-0.8-0.9-1.3-1.1c-0.3-0.1-0.7-0.2-1-0.2
	c-0.5,0-1.1,0.1-1.5,0.4c-0.4,0.3-0.8,0.8-1,1.3c-0.3,0.6-0.4,1.3-0.4,2c0,0.7,0.1,1.4,0.4,2c0.2,0.5,0.6,1,1.1,1.3
	c0.9,0.6,2.1,0.6,3,0.1c0.4-0.2,0.7-0.6,0.9-1c0.2-0.5,0.4-1,0.3-1.5l0.2,0.1H178v-0.7h3.3v0.7c0,0.7-0.1,1.3-0.4,1.9
	c-0.3,0.5-0.7,1-1.2,1.3C179,149.8,178.4,149.9,177.7,149.9z"/>
<path class="st0" d="M185.2,141v8.7h-0.8V141H185.2z"/>
<path class="st0" d="M192.1,149.9c-0.7,0-1.4-0.2-1.9-0.5c-0.6-0.4-1-0.9-1.3-1.6c-0.7-1.5-0.7-3.2,0-4.8c0.3-0.6,0.8-1.2,1.3-1.6
	c0.6-0.4,1.3-0.6,1.9-0.6c0.4,0,0.9,0.1,1.3,0.2c0.4,0.1,0.7,0.4,1,0.6c0.3,0.3,0.6,0.6,0.7,0.9c0.2,0.4,0.3,0.7,0.4,1.1h-0.8
	c-0.1-0.3-0.2-0.6-0.3-0.8c-0.2-0.3-0.3-0.5-0.6-0.7c-0.2-0.2-0.5-0.3-0.8-0.4c-0.3-0.1-0.7-0.2-1-0.1c-0.5,0-1,0.1-1.5,0.4
	c-0.5,0.3-0.8,0.7-1.1,1.2c-0.5,1.3-0.5,2.7,0,4c0.2,0.5,0.6,0.9,1.1,1.2c0.4,0.3,1,0.4,1.5,0.4c0.3,0,0.7,0,1-0.1
	c0.3-0.1,0.5-0.2,0.8-0.4c0.2-0.2,0.4-0.4,0.6-0.7c0.2-0.3,0.3-0.5,0.3-0.8h0.8c-0.1,0.4-0.2,0.8-0.4,1.1c-0.2,0.3-0.4,0.7-0.7,0.9
	c-0.3,0.3-0.6,0.5-1,0.6C193,149.8,192.6,149.9,192.1,149.9z"/>
<path class="st0" d="M197.6,149.8l3.2-8.7h1l3.2,8.7h-0.9l-2.1-5.7c-0.1-0.3-0.2-0.7-0.4-1.1s-0.3-0.9-0.5-1.5h0.2
	c-0.2,0.6-0.3,1.1-0.5,1.5s-0.3,0.8-0.4,1.1l-2,5.7H197.6z M199.1,147.2v-0.7h4.4v0.7H199.1z"/>
</svg>
